{"title":"John DAY (2013) 720p HDWebRip -X264-AC3- IcTv - Hindi","uid":8958946,"size":2626375100,"categoryP":"video","categoryS":"hd___movies","magnet":"?xt=urn:btih:fc0b0d808470a5f9b48b712645710432099e8ed7&amp;dn=John+DAY+%282013%29+720p+HDWebRip+-X264-AC3-+IcTv+-+Hindi&amp;tr=udp%3A%2F%2Ftracker.openbittorrent.com%3A80&amp;tr=udp%3A%2F%2Fopen.demonii.com%3A1337&amp;tr=udp%3A%2F%2Ftracker.coppersurfer.tk%3A6969&amp;tr=udp%3A%2F%2Fexodus.desync.com%3A6969","seeders":0,"leechers":1,"uploader":"SJonam","files":1,"time":1380058908,"description":" &lt;a href=&quot;http://picturestack.com/194/211/pLB1Z5w.jpg&quot; rel=&quot;nofollow&quot; target=&quot;_NEW&quot;&gt;http://picturestack.com/194/211/pLB1Z5w.jpg&lt;/a&gt; &lt;a href=&quot;\nhttp://s24.postimg.org/594d04uqt/John_Day_JPEG.jpg&quot; rel=&quot;nofollow&quot; target=&quot;_NEW&quot;&gt;\nhttp://s24.postimg.org/594d04uqt/John_Day_JPEG.jpg&lt;/a&gt; &lt;a href=&quot;\nhttp://s18.postimg.org/y53c4655l/image.jpg&quot; rel=&quot;nofollow&quot; target=&quot;_NEW&quot;&gt;\nhttp://s18.postimg.org/y53c4655l/image.jpg&lt;/a&gt; &lt;a href=&quot;\nhttp://s18.postimg.org/8l11xqjrt/image.jpg&quot; rel=&quot;nofollow&quot; target=&quot;_NEW&quot;&gt;\nhttp://s18.postimg.org/8l11xqjrt/image.jpg&lt;/a&gt; &lt;a href=&quot;\nhttp://s18.postimg.org/cqbyjnhjt/image.jpg&quot; rel=&quot;nofollow&quot; target=&quot;_NEW&quot;&gt;\nhttp://s18.postimg.org/cqbyjnhjt/image.jpg&lt;/a&gt; &lt;a href=&quot;\nhttp://s18.postimg.org/an64pq74p/image.jpg&quot; rel=&quot;nofollow&quot; target=&quot;_NEW&quot;&gt;\nhttp://s18.postimg.org/an64pq74p/image.jpg&lt;/a&gt; &lt;a href=&quot;\nhttp://s18.postimg.org/ozzko1r4p/image.jpg&quot; rel=&quot;nofollow&quot; target=&quot;_NEW&quot;&gt;\nhttp://s18.postimg.org/ozzko1r4p/image.jpg&lt;/a&gt;\n\nMedia Info - \nGeneral\nComplete name : John Day (2013) 720p HDWebRip -x264- AC3 - Team IcTv Excluisve.mkv\nFormat : Matroska\nFormat version : Version 2\nFile size : 2.45 GiB\nDuration : 2h 8mn\nOverall bit rate : 2 733 Kbps\nEncoded date : UTC 2013-09-24 10:51:50\nWriting application : mkvmerge v6.2.0 ('Promised Land') built on Apr 28 2013 12:22:01\nWriting library : libebml v1.3.0 + libmatroska v1.4.0\n\nVideo\nFormat : AVC\nFormat/Info : Advanced Video Codec\nFormat profile : &lt;a class=&quot;__cf_email__&quot; href=&quot;/cdn-cgi/l/email-protection&quot; data-cfemail=&quot;a9e1c0cec1e9e59d8799&quot;&gt;[email&amp;#160;protected]&lt;/a&gt;&lt;script cf-hash='f9e31' type=&quot;text/javascript&quot;&gt;\n/* &lt;![CDATA[ */!function(){try{var t=&quot;currentScript&quot;in document?document.currentScript:function(){for(var t=document.getElementsByTagName(&quot;script&quot;),e=t.length;e--;)if(t[e].getAttribute(&quot;cf-hash&quot;))return t[e]}();if(t&amp;&amp;t.previousSibling){var e,r,n,i,c=t.previousSibling,a=c.getAttribute(&quot;data-cfemail&quot;);if(a){for(e=&quot;&quot;,r=parseInt(a.substr(0,2),16),n=2;a.length-n;n+=2)i=parseInt(a.substr(n,2),16)^r,e+=String.fromCharCode(i);e=document.createTextNode(e),c.parentNode.replaceChild(e,c)}}}catch(u){}}();/* ]]&gt; */&lt;/script&gt;\nFormat settings, CABAC : Yes\nFormat settings, ReFrames : 10 frames\nCodec ID : V_MPEG4/ISO/AVC\nDuration : 2h 8mn\nBit rate : 2 285 Kbps\nWidth : 1 280 pixels\nHeight : 544 pixels\nDisplay aspect ratio : 2.35:1\nFrame rate : 25.000 fps\nColor space : YUV\nChroma subsampling : 4:2:0\nBit depth : 8 bits\nScan type : Progressive\nBits/(Pixel*Frame) : 0.131\nStream size : 2.00 GiB (82%)\nWriting library : x264 core 133 r2334 a3ac64b\nLanguage : English\nDefault : Yes\nForced : No\n\nAudio\nFormat : AC-3\nFormat/Info : Audio Coding 3\nMode extension : CM (complete main)\nCodec ID : A_AC3\nDuration : 2h 8mn\nBit rate mode : Constant\nBit rate : 448 Kbps\nChannel(s) : 2 channels\nChannel positions : Front: L R\nSampling rate : 44.1 KHz\nBit depth : 16 bits\nCompression mode : Lossy\nStream size : 411 MiB (16%)\nDefault : Yes\nForced : No\n\n\nSample - http://www.sendspace.com/file/eg1wx0\n\nRipper : MasterMind\n\nSeeding 24x7... Extreme Seeding...\n\n\nEnjoy!\n","torrent":{"xt":"urn:btih:fc0b0d808470a5f9b48b712645710432099e8ed7","amp;dn":"John+DAY+%282013%29+720p+HDWebRip+-X264-AC3-+IcTv+-+Hindi","amp;tr":["udp%3A%2F%2Ftracker.openbittorrent.com%3A80","udp%3A%2F%2Fopen.demonii.com%3A1337","udp%3A%2F%2Ftracker.coppersurfer.tk%3A6969","udp%3A%2F%2Fexodus.desync.com%3A6969"],"infoHash":"fc0b0d808470a5f9b48b712645710432099e8ed7","infoHashBuffer":{"type":"Buffer","data":[252,11,13,128,132,112,165,249,180,139,113,38,69,113,4,50,9,158,142,215]},"announce":[],"urlList":[]}}